<?xml version="1.0" standalone="no"?>
<!DOCTYPE svg PUBLIC "-//W3C//DTD SVG 1.1//EN" "http://www.w3.org/Graphics/SVG/1.1/DTD/svg11.dtd" >
<svg xmlns="http://www.w3.org/2000/svg">
<metadata>Generated by IcoMoon</metadata>
<defs>
<font id="icons" horiz-adv-x="1024">
<font-face units-per-em="1024" ascent="960" descent="-64" />
<missing-glyph horiz-adv-x="1024" />
<glyph unicode="&#x20;" horiz-adv-x="512" d="" />
<glyph unicode="&#xe900;" glyph-name="top" horiz-adv-x="956" d="M914.773 460.8l-399.36 491.52c-10.24 10.24-23.893 17.067-37.547 17.067s-27.307-6.827-34.133-17.067c0 0-136.533-163.84-402.773-491.52-17.067-20.48-13.653-51.2 6.827-68.267s51.2-13.653 68.267 6.827l317.44 389.12v-788.48c0-27.307 20.48-47.787 47.787-47.787s47.787 20.48 47.787 47.787v788.48l317.44-389.12c17.067-20.48 47.787-23.893 68.267-6.827 10.24 10.24 17.067 23.893 17.067 37.547-3.413 10.24-6.827 20.48-17.067 30.72z" />
<glyph unicode="&#xe901;" glyph-name="close" d="M587.453 476.968l393.432 388.042c21.558 21.558 21.558 53.895 0 75.453s-53.895 21.558-75.453 0l-393.432-388.042-371.874 377.263c-21.558 21.558-53.895 21.558-75.453 0s-21.558-53.895 0-75.453l371.874-371.874-371.874-371.874c-21.558-21.558-21.558-53.895 0-75.453s53.895-21.558 75.453 0l371.874 371.874 388.042-388.042c21.558-21.558 53.895-21.558 75.453 0s21.558 53.895 0 75.453l-388.042 382.653z" />
<glyph unicode="&#xe902;" glyph-name="css3" horiz-adv-x="1119" d="M168.579 957.586l-37.382-186.929h760.865l-23.741-120.772h-761.373l-36.891-186.929h760.881l-42.432-213.211-306.684-101.539-265.744 101.539 18.183 92.456h-186.929l-44.465-224.311 439.539-168.238 506.762 168.238 67.19 337.492 13.641 67.698 86.39 434.424z" />
<glyph unicode="&#xe903;" glyph-name="docker" horiz-adv-x="1373" d="M428.218 761.018h134.982v-137.309h-134.982v137.309zM595.782 586.473h134.982v-137.309h-134.982v137.309zM595.782 761.018h134.982v-137.309h-134.982v137.309zM595.782 935.564h134.982v-137.309h-134.982v137.309zM763.345 586.473h134.982v-137.309h-134.982v137.309zM428.218 586.473h134.982v-137.309h-134.982v137.309zM90.764 586.473h134.982v-137.309h-134.982v137.309zM1342.836 514.327c-44.218 27.927-107.055 32.582-160.582 18.618-6.982 55.855-41.891 102.4-86.109 137.309l-16.291 13.964-13.964-18.618c-27.927-32.582-39.564-88.436-34.909-130.327 2.327-32.582 13.964-62.836 30.255-88.436-13.964-6.982-30.255-13.964-44.218-20.945-32.582-11.636-62.836-13.964-93.091-13.964h-907.636l-2.327-20.945c-6.982-67.491 2.327-137.309 30.255-200.145l13.964-25.6v-4.655c83.782-141.964 232.727-204.8 397.964-204.8 314.182 0 572.509 137.309 693.527 432.873 79.127-4.655 160.582 18.618 197.818 95.418l9.309 18.618-13.964 11.636zM281.6 146.618c-37.236 0-72.145 32.582-72.145 69.818 0 39.564 32.582 69.818 72.145 69.818 41.891 0 72.145-32.582 72.145-69.818 2.327-37.236-32.582-69.818-72.145-69.818zM258.327 761.018h134.982v-137.309h-134.982v137.309zM258.327 586.473h134.982v-137.309h-134.982v137.309z" />
<glyph unicode="&#xe904;" horiz-adv-x="703" d="M372.924 970.468c-10.628 17.863-407.049-332.266-353.966-675.232 24.072-155.477 141.588-371.565 403.509-332.266 109.94 16.498 272.558 132.194 261.94 339.412-9.83 191.8-130.961 267.942-226.536 367.982-90.947 95.189-74.329 282.241-84.947 300.104z" />
<glyph unicode="&#xe905;" horiz-adv-x="703" d="M319.83 929.24c-10.628 17.697-353.957-297.325-300.874-637.124 24.082-154.038 141.588-368.124 403.519-329.19 109.94 16.345 272.549 130.97 261.93 336.269-9.83 190.024-187.592 265.461-283.167 364.575-90.947 94.308-70.789 247.773-81.408 265.47z" />
<glyph unicode="&#xe906;" glyph-name="mail" horiz-adv-x="1144" d="M114.447 39.153v536.094l433.694-265.035c6.024-6.024 18.071-6.024 24.094-6.024s18.071 0 24.094 6.024l433.694 265.035v-536.094h-915.576zM1030.024 882.447v-198.776l-457.788-283.106-457.788 283.106v198.776h915.576zM1072.188 972.8h-999.906c-30.118 0-48.188-18.071-48.188-48.188v-933.647c0-24.094 18.071-48.188 48.188-48.188h1005.929c24.094 0 48.188 18.071 48.188 48.188v933.647c-6.024 30.118-24.094 48.188-54.212 48.188z" />
<glyph unicode="&#xe907;" glyph-name="facebook" d="M967.489-51.208v0.004l-260.945-0.004v396.55h133.104l19.928 154.544h-153.036v98.67c0 44.744 12.423 75.235 76.589 75.235l81.834 0.038v138.223c-14.154 1.88-62.735 6.089-119.246 6.089-117.991 0-198.77-72.020-198.77-204.284v-113.97h-133.446v-154.544h133.446v-396.547h-490.432c-31.22 0-56.515 25.303-56.515 56.515v910.973c0 31.216 25.296 56.515 56.515 56.515h910.973c31.204 0 56.511-25.296 56.511-56.515v-910.977c0-31.208-25.303-56.515-56.511-56.515zM706.544-51.204l260.945-0.004z" />
<glyph unicode="&#xe908;" glyph-name="github" d="M512 972.8c-282.885 0-512-232.609-512-519.808 0-244.288 165.104-447.035 387.856-504.192-2.571 6.503-3.835 15.616-3.835 24.685v88.39h-64.011c-34.555 0-66.582 15.572-80.656 44.195-16.645 31.188-19.216 79.276-61.44 109.182-12.811 10.396-2.571 20.792 11.504 19.509 26.885-7.786 48.629-26.013 69.109-53.264 20.48-27.295 29.456-33.799 67.845-33.799 17.909 0 46.058 1.283 71.68 5.22 14.075 36.409 38.389 68.88 67.845 84.452-171.509 20.792-253.429 106.572-253.429 223.54 0 50.698 21.744 98.786 57.605 140.37-11.504 40.302-26.885 123.471 5.142 155.942 76.822 0 122.88-50.698 134.384-63.66 38.389 13.006 80.656 20.792 124.144 20.792 44.795 0 85.755-7.786 124.144-20.792 11.504 13.006 57.605 63.66 134.384 63.66 30.72-31.188 16.645-115.641 3.835-155.942 35.862-40.302 56.342-89.672 56.342-140.37 0-116.968-80.656-202.747-250.858-220.93 47.365-24.685 80.656-94.848 80.656-146.829v-118.384c0-3.893-1.264-7.786-1.264-11.679 199.658 70.163 343.018 262.47 343.018 489.903 0 287.2-229.115 519.808-512 519.808z" />
<glyph unicode="&#xe909;" glyph-name="golang" horiz-adv-x="2697" d="M197.973 669.013h481.28l30.72 64.853h-474.453zM6.827 539.307h624.64l13.653 64.853h-600.747zM327.68 409.6h283.307l3.413 64.853h-262.827zM2662.4 583.68c-17.067 126.293-78.507 221.867-177.493 293.547-109.227 78.507-232.107 92.16-361.813 68.267-150.187-27.307-262.827-95.573-354.987-218.453-40.96-54.613-68.267-112.64-88.747-170.667h-409.6c-17.067 0-27.307-13.653-30.72-20.48-17.067-34.133-47.787-102.4-64.853-143.36-10.24-23.893-3.413-40.96 23.893-40.96h245.76c-13.653-17.067-23.893-34.133-34.133-47.787-58.027-68.267-129.707-98.987-215.040-85.333-98.987 13.653-170.667 102.4-170.667 208.213 0 109.227 44.373 191.147 129.707 249.173 71.68 47.787 150.187 61.44 228.693 20.48 27.307-13.653 40.96-27.307 58.027-51.2 17.067-20.48 17.067-17.067 37.547-13.653 78.507 20.48 133.12 37.547 211.627 58.027 13.653 3.413 20.48 10.24 13.653 20.48-30.72 75.093-78.507 139.947-146.773 187.733-102.4 71.68-218.453 85.333-337.92 64.853-143.36-34.133-262.827-109.227-354.987-232.107-85.333-112.64-122.88-242.347-109.227-385.707 13.653-119.467 68.267-218.453 160.427-293.547 102.4-78.507 218.453-105.813 341.333-88.747 150.187 20.48 269.653 98.987 361.813 221.867 20.48 27.307 37.547 58.027 51.2 88.747 20.48-78.507 64.853-146.773 126.293-201.387 88.747-78.507 194.56-112.64 310.613-116.053 34.133 3.413 68.267 6.827 102.4 13.653 119.467 23.893 221.867 78.507 303.787 167.253 122.88 126.293 174.080 269.653 150.187 447.147zM2252.8 238.933c-68.267-34.133-136.533-40.96-208.213-6.827-92.16 40.96-139.947 146.773-116.053 249.173 27.307 122.88 102.4 201.387 221.867 228.693 122.88 27.307 235.52-44.373 259.413-174.080 3.413-13.653 3.413-27.307 3.413-44.373-6.827-116.053-61.44-197.973-160.427-252.587z" />
<glyph unicode="&#xe90a;" glyph-name="hamburger" horiz-adv-x="2133" d="M2133.333 887.467c0 51.2-34.133 85.333-85.333 85.333h-1877.333c-51.2 0-85.333-34.133-85.333-85.333s34.133-85.333 85.333-85.333h1877.333c51.2 0 85.333 34.133 85.333 85.333zM2048 119.467h-1194.667c-51.2 0-85.333-34.133-85.333-85.333s34.133-85.333 85.333-85.333h1194.667c51.2 0 85.333 34.133 85.333 85.333s-34.133 85.333-85.333 85.333z" />
<glyph unicode="&#xe90b;" glyph-name="html5" horiz-adv-x="740" d="M170.008 954.544v-44.859h-42.234v44.859h-46.145v-135.809h46.145v45.475h42.234v-45.475h46.158v135.809zM236.224 954.544v-45.031h40.642v-90.778h46.158v90.778h40.642v45.031zM491.218 954.544l-29.572-47.719-29.598 47.719h-48.138v-135.809h45.167v67.307l31.779-48.273h0.79l31.754 48.273v-67.307h45.97v135.809zM562.343 954.544v-135.809h111.082v44.896h-64.899v90.913zM191.471 155.347l-13.012 143.402h91.174l6.757-74.395 101.291-26.824 101.253 26.873 10.543 115.839h-314.779l-24.508 270.089h454.97l-8.136-89.311h-347.574l8.311-91.468h330.989l-24.909-274.206-186.31-50.8-186.060 50.8zM15.101 759.195l66.027-728.218 296.364-80.903 296.652 80.867 66.102 728.255h-725.146z" />
<glyph unicode="&#xe90c;" glyph-name="instagram" d="M512 727.040c-143.36 0-266.24-116.053-266.24-266.24s116.053-266.24 266.24-266.24 266.24 116.053 266.24 266.24-122.88 266.24-266.24 266.24zM512 290.133c-95.573 0-170.667 75.093-170.667 170.667s75.093 170.667 170.667 170.667 170.667-75.093 170.667-170.667-75.093-170.667-170.667-170.667zM785.067 795.307v0c-34.133 0-61.44-27.307-61.44-61.44s27.307-61.44 61.44-61.44c34.133 0 61.44 27.307 61.44 61.44s-27.307 61.44-61.44 61.44zM1024 672.427c0 54.613-13.653 88.747-20.48 122.88-13.653 34.133-27.307 61.44-61.44 88.747-27.307 27.307-54.613 47.787-88.747 61.44s-68.267 20.48-122.88 20.48c-61.44 6.827-81.92 6.827-218.453 6.827s-157.013 0-211.627 0c-54.613 0-88.747-13.653-122.88-20.48-34.133-20.48-61.44-34.133-88.747-68.267s-47.787-54.613-61.44-88.747c-13.653-34.133-20.48-68.267-27.307-122.88 0-54.613 0-75.093 0-211.627s0-157.013 0-211.627c0-54.613 13.653-88.747 20.48-122.88 13.653-34.133 27.307-61.44 61.44-88.747s54.613-47.787 88.747-61.44c34.133-13.653 68.267-20.48 122.88-20.48s75.093 0 211.627 0 157.013 0 211.627 0 88.747 13.653 122.88 20.48c34.133 13.653 61.44 27.307 88.747 61.44s47.787 54.613 61.44 88.747c13.653 34.133 20.48 68.267 20.48 122.88s0 75.093 0 211.627 13.653 157.013 13.653 211.627zM928.427 256c0-47.787-13.653-75.093-20.48-95.573-6.827-27.307-20.48-40.96-40.96-61.44s-34.133-27.307-61.44-40.96c-20.48-6.827-47.787-13.653-95.573-20.48-54.613 0-68.267 0-204.8 0s-150.187 0-204.8 0c-47.787 0-75.093 13.653-95.573 20.48-27.307 6.827-40.96 20.48-61.44 40.96s-27.307 34.133-40.96 61.44c-6.827 20.48-13.653 47.787-20.48 95.573 0 54.613 0 68.267 0 204.8s0 150.187 0 204.8c0 47.787 13.653 75.093 20.48 95.573 20.48 27.307 34.133 40.96 47.787 61.44 20.48 13.653 34.133 27.307 61.44 34.133 20.48 6.827 47.787 13.653 95.573 20.48 54.613 0 68.267 0 204.8 0s150.187 0 204.8 0c47.787 0 75.093-13.653 95.573-20.48 27.307-6.827 40.96-20.48 61.44-40.96s27.307-34.133 40.96-61.44c6.827-20.48 13.653-47.787 20.48-95.573 0-54.613 0-68.267 0-204.8s-6.827-143.36-6.827-197.973z" />
<glyph unicode="&#xe90d;" glyph-name="java" horiz-adv-x="777" d="M542.341 269.274c-117.57-20.859-185.837-18.963-271.17-11.378-66.37 5.689-22.756 36.030-22.756 36.030-172.563-51.2 94.815-109.985 335.644-47.407-26.548 7.585-41.719 22.756-41.719 22.756zM273.067 191.526c-155.496-39.822 94.815-121.363 293.926-43.615-32.237 11.378-54.993 24.652-54.993 24.652-89.126-15.17-128.948-17.067-210.489-7.585-68.267 7.585-28.444 26.548-28.444 26.548zM601.126 771.793c0 0-326.163-87.23-170.667-282.548 45.511-56.889-11.378-108.089-11.378-108.089s117.57 64.474 62.578 146.015c-49.304 77.748-87.23 115.674 119.467 244.622zM697.837 92.919c0 0 28.444-24.652-32.237-43.615-113.778-36.030-475.97-45.511-576.474-1.896-36.030 15.17 32.237 37.926 53.096 43.615 22.756 5.689 34.133 3.793 34.133 3.793-39.822 28.444-259.793-56.889-111.881-81.541 405.807-66.37 737.659 32.237 633.363 79.644zM604.919 219.97c0-1.896-3.793-5.689-3.793-5.689 254.104 68.267 159.289 240.83 39.822 197.215-11.378-3.793-17.067-13.274-17.067-13.274s7.585 1.896 20.859 5.689c60.681 13.274 149.807-83.437-39.822-183.941zM559.407 345.126c18.963 13.274 45.511 24.652 45.511 24.652s-75.852-13.274-151.704-20.859c-92.919-7.585-193.422-9.481-242.726-1.896-119.467 17.067 64.474 60.681 64.474 60.681s-72.059 5.689-159.289-37.926c-104.296-51.2 256-75.852 443.733-24.652zM373.57 417.185c-36.030 83.437-155.496 157.393 0 286.341 195.319 159.289 94.815 263.585 94.815 263.585 39.822-164.978-142.222-216.178-208.593-318.578-43.615-70.163 22.756-146.015 113.778-231.348zM612.504-9.481c-153.6-26.548-343.23-24.652-455.111-5.689 0 0 22.756-17.067 140.326-24.652 180.148-11.378 455.111 5.689 462.696 85.333 0 0-11.378-30.341-147.911-54.993z" />
<glyph unicode="&#xe90e;" glyph-name="javascript" horiz-adv-x="981" d="M750.61 43.859c-85.317 0-140.436 41.067-167.391 94.881l74.649 43.794c19.694-32.472 45.305-56.336 90.611-56.336 38.071 0 62.38 19.217 62.38 45.768 0 31.801-24.974 43.068-66.872 61.586l-22.965 9.938c-66.289 28.538-110.332 64.259-110.332 139.799 0 69.578 52.499 122.542 134.545 122.542 58.403 0 100.383-20.533 130.65-74.293l-71.541-46.385c-15.744 28.525-32.737 39.765-59.109 39.765-26.914 0-43.975-17.244-43.975-39.765 0-27.826 17.074-39.093 56.489-56.323l22.965-9.951c78.056-33.788 122.113-68.248 122.113-145.721 0-83.532-64.958-129.3-152.217-129.3zM533.557 183.823c0-96.060-55.77-139.786-137.178-139.786-73.55 0-116.141 38.435-137.803 84.738l74.785 45.713c14.428-25.838 27.552-47.701 59.109-47.701 30.185 0 49.228 11.925 49.228 58.297v315.443h91.859v-316.704zM1.185-33.422h977.58v987.259h-977.58v-987.259z" />
<glyph unicode="&#xe90f;" glyph-name="linkedin" d="M941.105 972.8h-867.962c-39.010 0-73.143-34.133-73.143-73.143v-872.838c0-39.010 34.133-73.143 73.143-73.143h863.086c39.010 0 73.143 34.133 73.143 73.143v872.838c4.876 39.010-29.257 73.143-68.267 73.143zM307.2 119.467h-151.162v458.362h151.162v-458.362zM229.181 641.219v0 0c-48.762 0-82.895 34.133-82.895 82.895 0 43.886 34.133 78.019 87.771 78.019s82.895-34.133 87.771-78.019c-4.876-48.762-39.010-82.895-92.648-82.895zM858.21 119.467h-151.162v248.686c0 63.39-24.381 102.4-78.019 102.4-43.886 0-68.267-29.257-78.019-53.638-4.876-9.752-4.876-24.381-4.876-39.010v-258.438h-156.038c0 0 0 419.352 0 463.238h151.162v-63.39c19.505 29.257 58.514 78.019 136.533 78.019 102.4 0 175.543-68.267 175.543-209.676v-268.19z" />
<glyph unicode="&#xe910;" glyph-name="medium" horiz-adv-x="1178" d="M414.483 343.838l292.4-150.906-292.4 489.976zM808.094 972.8l-244.447-409.69 232.126-388.975 367.693 615.651zM0.001 135.884c0.073-0.604 0.589-2.361 1.785-4.351 1.245-2.065 2.608-3.349 3.11-3.682l343.436-177.275v831.877l-348.331 179.782v-826.351zM1177.301-48.998v731.872l-334.289-559.72z" />
<glyph unicode="&#xe911;" glyph-name="mysql" horiz-adv-x="1046" d="M237.685 779.741c-12.942 0-22.072-1.304-31.312-3.196v-1.286h1.509c6.156-10.166 16.861-17.21 24.439-26.118 6.145-10.194 11.476-20.342 17.588-30.526 0.76 0.616 1.498 1.276 1.498 1.276 10.759 6.337 16.090 16.531 16.090 31.83-4.603 4.481-5.331 8.908-9.174 13.371-4.582 6.364-14.527 9.551-20.639 14.648zM954.367 189.844c-56.253 1.38-99.796-4.121-136.346-19.273-10.531-4.131-27.377-4.131-28.816-17.217 5.655-5.501 6.335-14.437 11.291-22.043 8.403-13.762 23.131-32.32 36.519-41.991 14.748-11.021 29.515-21.994 45.002-31.625 27.377-16.601 58.321-26.193 84.979-42.725 15.507-9.631 30.914-22.004 46.431-32.369 7.704-5.491 12.589-14.457 22.451-17.863v2.085c-4.936 6.176-6.335 15.123-11.221 22.043-7.014 6.842-14.058 13.077-21.092 19.928-20.403 26.849-45.722 50.232-73.079 69.505-22.501 15.181-71.72 35.844-80.822 61.234 0 0-0.729 0.744-1.419 1.409 15.457 1.39 33.772 6.91 48.509 11.090 23.86 6.186 45.652 4.786 70.241 10.963 11.261 2.78 22.511 6.235 33.792 9.622v6.235c-12.709 12.372-21.802 28.924-35.161 40.611-35.81 30.284-75.207 59.864-115.963 84.676-21.812 13.772-49.928 22.689-73.119 34.425-8.393 4.131-22.431 6.176-27.377 13.096-12.659 15.142-19.713 35.080-28.826 53.002-20.353 37.831-40.076 79.802-57.612 119.796-12.639 26.839-20.393 53.658-35.84 78.461-72.419 117.055-151.103 187.921-271.972 257.465-26.018 14.496-56.922 20.682-89.935 28.248-17.595 0.724-35.151 2.065-52.706 2.731-11.271 4.845-22.531 17.932-32.363 24.128-40.076 24.774-143.32 78.461-172.865 7.566-18.964-44.78 28.116-88.817 44.283-111.544 11.94-15.817 27.427-33.739 35.81-51.612 4.926-11.716 6.345-24.128 11.281-36.5 11.231-30.284 21.762-64.024 36.539-92.272 7.714-14.457 16.126-29.628 25.968-42.637 5.675-7.625 15.487-11.021 17.605-23.452-9.822-13.742-10.581-34.405-16.196-51.622-25.279-77.805-15.447-174.178 20.393-231.311 11.231-17.207 37.948-55.087 73.808-40.591 31.604 12.362 24.589 51.612 33.722 86.007 2.098 8.33 0.699 13.782 4.896 19.282v-1.39c9.832-19.253 19.694-37.792 28.826-57.133 21.812-33.7 59.73-68.82 91.393-92.203 16.806-12.441 30.165-33.749 51.257-41.345v2.085h-1.389c-4.226 6.176-10.531 8.956-16.156 13.752-12.659 12.392-26.678 27.544-36.559 41.306-29.505 38.545-55.543 81.251-78.684 125.306-11.281 21.387-21.092 44.77-30.245 66.108-4.206 8.212-4.206 20.643-11.241 24.764-10.571-15.132-25.978-28.229-33.712-46.757-13.359-29.638-14.748-66.128-19.713-103.998-2.798-0.724-1.389 0-2.798-1.37-22.461 5.501-30.185 28.209-38.648 47.433-21.072 48.94-24.619 127.421-6.325 183.878 4.896 14.428 26.048 59.854 17.565 73.626-4.236 13.145-18.285 20.633-25.998 31.009-9.122 13.077-19.014 29.57-25.279 44.056-16.876 38.545-25.349 81.241-43.564 119.776-8.443 17.932-23.221 36.519-35.131 53.012-13.389 18.597-28.126 31.664-38.688 53.678-3.477 7.596-8.413 19.987-2.808 28.229 1.399 5.511 4.236 7.586 9.862 8.985 9.092 7.556 35.121-2.055 44.243-6.196 26.008-10.287 47.8-19.987 69.562-34.415 9.852-6.901 20.403-19.977 33.032-23.452h14.768c22.481-4.777 47.81-1.341 68.912-7.556 37.209-11.697 70.931-28.904 101.165-47.492 92.033-57.152 167.949-138.403 219.226-235.461 8.443-15.808 11.99-30.284 19.713-46.767 14.758-33.808 33.042-68.232 47.77-101.238 14.748-32.369 28.846-65.374 49.938-92.262 10.521-14.437 52.696-22.004 71.68-29.589 14.008-6.186 35.84-11.697 48.489-19.253 23.9-14.437 47.75-30.989 70.261-46.846 11.221-8.251 46.371-25.449 48.479-39.24z" />
<glyph unicode="&#xe912;" glyph-name="postgress" horiz-adv-x="1003" d="M541.956 371.101c1.957-0.105 3.886-0.542 5.71-1.283-2.157 7.971-4.703 15.827-7.619 23.542-8.284 22.943-2.546 10.859-15.922 39.502-17.842 39.502-40.728 90.424-15.267 208.189 6.992 33.109 25.461 50.276 49.012 57.287 14.649 4.418 31.18 5.073 47.739 2.518 15.913-2.537 31.18-6.983 45.183-12.73 8.93-3.81 17.851-8.275 24.834-12.73-5.729 68.754-35.655 232.985-199.886 229.784-136.215-1.891-213.225-91.649-248.233-155.938-8.93-15.913-15.276-30.534-19.096-41.393-0.646-0.627-0.646-1.891-0.646-2.537 80.838 8.275 112.664-19.761 119.675-61.78 9.567-59.833-38.818-146.409-63.652-190.319-5.748-10.194-10.194-18.469-11.467-21.651-9.567-23.551-21.67-38.828-31.218-50.266-3.183-3.829-5.738-6.992-7.657-10.194 18.478-5.073 45.202-15.267 42.685-69.352 1.254-15.941 6.346-61.134 12.075-105.054 4.446-35.655 9.557-71.936 12.721-92.951 5.102-28.634 12.74-49.003 26.734-62.996 13.984-14.649 34.99-24.197 66.179-30.543 35.655-7.657 57.952 0 72.573 12.084 15.276 12.73 22.905 31.18 28.007 43.274 4.446 12.094 8.284 43.293 10.194 85.911 1.91 42.685 2.527 94.879 1.292 147.73 0 11.41-0.675 21.623 3.164 32.434 4.446 11.41 12.075 22.259 21.005 29.251 8.902 6.992 21.632 10.859 31.826 10.175l0.057 0.038zM240.233 664.562c4.456 1.292 10.175 1.292 16.559 0.646 6.346-1.292 12.084-2.584 15.894-5.102 4.456-2.575 6.365-5.738 6.365-8.921 0-4.446-4.446-8.902-10.175-12.084-5.149-2.499-10.232-3.791-14.678-3.126-6.365 0.627-12.103 3.81-17.186 8.883-3.867 4.465-6.384 9.567-6.384 12.103 1.292 3.829 4.475 6.384 9.567 7.657l0.038-0.057zM219.228 427.14c2.537 4.418 5.092 10.175 7.629 15.276 1.91 5.073 6.992 13.348 12.73 24.834 22.924 41.355 68.117 122.193 60.479 172.497-4.456 27.997-29.916 45.801-94.841 37.526 0-14.63 1.843-27.361 4.418-40.709 1.91-14.649 4.456-29.289 5.092-47.102 0.627-17.196-1.91-35.028-3.819-53.477-4.475-35.018-8.93-72.582 8.275-108.864l0.038 0.019zM203.952 344.355c-2.575 0.665-5.092 1.283-6.992 1.929-33.755-25.461-90.405-14.64-127.304-7.638 8.883-8.275 23.542-18.469 40.709-26.116 16.559-7.619 43.293-12.702 68.108-14.63 14.022-0.627 27.38-0.627 37.574 1.91 6.365 1.235 10.811 2.527 12.084 3.791 1.283 33.745-13.984 38.201-24.197 40.737l0.019 0.019zM566.141 316.994c-6.365 8.284-12.73 15.267-20.378 22.924-2.575 2.499-4.494 2.499-6.403 3.126-3.81 0.665-9.567-1.891-12.73-4.418-4.418-3.202-8.237-8.94-10.802-15.267-1.91-6.403-3.183-14.659 1.292-20.416 20.369-27.969 45.183-40.11 68.108-43.901 23.542-3.819 45.801 0 59.177 3.183 6.688 1.976 13.091 4.76 19.096 8.275-3.8 1.9-10.811 3.81-20.359 6.375-54.095 10.821-59.206 17.804-77.019 40.101l0.019 0.019zM199.486 399.124c0.637 0.618 1.283 1.283 1.283 1.91-29.289 48.385-23.542 94.879-18.469 138.172 1.919 17.177 3.829 33.736 3.829 49.003-0.551 14.754-2.252 29.432-5.054 43.92-2.584 17.215-5.102 34.401-4.456 54.085v1.283c-0.646 5.121 1.292 15.96 5.7 29.308 4.475 12.113 10.849 28.026 21.024 45.212 26.734 48.984 75.746 110.745 153.401 145.117-37.526 7.629-97.378 13.984-157.22-3.183-42.647-12.103-84.667-36.928-119.675-80.857-20.369-26.088-16.559-98.024 8.275-185.873 21.015-76.382 57.952-164.232 108.854-243.806 0.038 2.176 0.95 4.247 2.527 5.748l-0.019-0.038zM964.617 691.291c-1.91-40.728-34.363-208.807-83.375-325.262-16.569-38.818-34.401-71.936-54.095-93.587-22.943-24.786-47.758-36.244-75.128-26.677-12.74 4.408-25.47 13.975-38.191 28.624-35.018 42.020-66.844 76.382-78.311 89.113-13.367-6.992-27.361-12.103-42.637-14.022-4.456-0.637-9.567-1.283-13.984-1.283v-1.891c3.164-3.829 6.992-7.638 10.156-12.084 12.73-15.922 16.559-21.015 60.469-29.935 19.685-3.772 31.835-9.519 38.163-15.884 6.992-6.365 8.921-13.348 7.629-20.359-1.283-6.384-4.465-11.486-9.567-16.559-8.275-7.657-22.905-14.64-34.363-17.205-15.913-3.81-42.029-8.902-71.29-3.81-21.651 3.81-44.556 12.73-65.571 31.826 0.646-40.101-0.637-78.919-1.91-112.037-1.929-45.183-6.384-80.22-12.113-94.841-6.356-15.267-15.903-37.564-35.645-54.741-20.369-17.196-50.931-28.016-96.779-17.813-36.899 7.591-62.36 19.685-80.819 38.818-18.431 19.058-27.959 43.882-34.344 78.263-3.183 20.359-8.284 57.287-13.376 94.186-3.829 29.935-6.992 59.206-9.567 80.22-2.518-0.627-5.7-1.91-8.883-2.537-12.73-2.575-28.643-3.183-44.566-2.575-27.997 1.929-58.56 7.667-78.273 17.215-26.734 12.73-49.022 29.251-58.56 42.647-3.829 5.738-6.365 11.476-6.992 16.559-0.665 8.921 3.164 15.913 11.438 19.742 6.365 3.183 16.559 3.829 31.189 0.646 74.454-15.276 96.77-5.748 103.753 0.627-56.033 85.303-97.407 180.781-120.312 264.184-26.715 96.732-28.605 178.197-3.126 211.296 38.818 49.668 86.557 77.028 134.296 90.405 71.936 20.977 142.58 10.849 181.399 1.283 3.211-0.646 5.121-1.283 7.030-1.91 0.618-0.646 15.267-4.456 26.088-6.992 23.181 5.396 46.855 8.379 70.654 8.902 52.204 0.646 92.305-12.084 123.494-33.726 53.515 19.713 382.653 128.567 366.094-208.835l-0.076 0.009zM603.7 929.387c-15.276 9.272-31.778 16.331-49.012 20.986-23.551 6.983-50.295 10.849-79.565 10.184-14.687 0-29.327-1.283-44.604-2.537-10.811-1.292-21.015-2.575-30.543-4.475-35.683 10.194-119.029 28.653-203.069 8.284-57.306-13.357-115.866-43.92-163.605-104.389-31.17-40.091-31.17-131.152-1.862-236.206 23.789-84.724 58.911-165.856 104.389-241.193-10.821 2.518-28.007 6.346-54.741 12.075-21.005 4.446-37.564 2.575-49.022-3.192-20.369-10.165-29.251-26.078-27.997-47.739 0.637-10.811 5.092-21.632 12.084-31.826 12.103-16.559 38.191-36.918 69.39-51.549 15.276-6.992 35.018-12.103 55.377-15.913 20.369-3.126 42.020-5.054 59.833-3.791h1.91l6.992 0.646c0-1.929 0.646-3.202 0.646-5.121 0.637-3.8 0.637-5.7 0.637-7.61 2.546-106.337 19.751-167.424 46.485-205.615 30.534-43.91 69.352-56.023 112.654-64.944 111.41-23.551 134.315 47.758 147.682 87.849 0.646 2.575 1.292 4.475 2.537 6.365 5.738 15.305 9.567 34.401 11.457 56.669 2.584 21.024 3.183 42.020 4.456 63.652 0.646 6.384 0.646 15.267 0.646 24.207 0 6.356 0 12.075-0.646 17.794 12.73-5.7 26.126-9.567 38.818-11.438 33.764-5.748 64.326-0.646 82.795 4.446 15.267 3.81 34.99 12.73 47.093 24.197l5.71 5.7c10.184-8.284 21.024-14.649 31.199-17.842 40.11-14.63 75.119 0.656 105.672 34.401 22.269 24.178 42.010 60.469 59.206 101.843 50.276 119.666 84.021 292.153 85.911 334.838 18.478 355.815-301.72 271.176-388.914 241.241zM625.334 879.075c84.657-83.375 80.857-232.358 80.857-233.612 0-3.829 0-8.275-0.684-14.64-1.283-23.551-3.829-68.070 2.537-117.747 1.929-12.065 1.929-24.834 0.665-36.244-2.983-31.74-16.151-61.666-37.536-85.303-3.857-4.475-8.275-8.284-12.749-12.113 13.984-14.64 44.566-47.739 76.392-87.203 8.902-10.821 17.804-17.186 25.461-20.369 14.602-5.092 29.251 2.546 43.891 19.105 17.851 19.713 34.372 50.276 49.012 85.911 47.767 113.329 79.593 275.651 81.513 315.742 14.649 272.44-232.976 211.952-309.358 186.472zM596.684 634.001c-4.456-4.446-10.821-8.902-17.804-9.567-7.049-1.254-14.060 1.292-19.143 5.121-5.092 3.829-8.911 8.275-9.567 12.084-0.618 4.418 2.584 8.275 7.657 11.4 9.567 5.121 23.551 6.992 34.363 5.121 7.638-1.938 10.203-5.748 10.821-9.567 0.646-5.092-1.891-10.194-6.365-14.649l0.038 0.057zM680.078 509.88c-7.629 52.831-4.446 99.307-3.183 122.858 0 4.446 0.646 8.275 0.646 12.73 0 0.637-15.913 7.629-36.918 16.559-12.436 5.225-25.48 8.864-38.828 10.811-12.749 1.919-24.834 1.919-35.018-1.283-13.329-4.456-24.786-15.276-29.261-36.282-23.542-108.845-3.164-154.665 13.386-190.965 10.184-22.269 11.457-28.007 16.55-40.737 3.183-9.567 6.365-18.488 8.902-27.408 4.475 0 8.949 0.646 12.749 1.292 23.551 3.164 45.202 15.267 61.742 33.717 17.414 18.972 28.14 43.112 30.543 68.754 0.637 9.567 0 19.761-1.292 29.935l-0.019 0.019z" />
<glyph unicode="&#xe913;" glyph-name="rails" horiz-adv-x="2882" d="M2730.667 267.378h-113.778v60.681h231.348v128.948h-223.763c-56.889 0-132.741-45.511-132.741-132.741v-45.511c0-87.23 75.852-132.741 132.741-132.741 163.081 0-37.926 0 109.985 0v-60.681h-238.933v-128.948h235.141c49.304 0 128.948 34.133 132.741 132.741v49.304c3.793 79.644-68.267 128.948-132.741 128.948zM1558.756 43.615h132.741v-87.23h140.326v367.881c0 106.193-102.4 132.741-136.533 132.741h-144.119c-102.4 0-136.533-87.23-136.533-132.741v-367.881h144.119v87.23zM1558.756 309.096c0 0 0 26.548 45.511 26.548h49.304c37.926 0 41.719-26.548 41.719-26.548v-121.363h-132.741v121.363zM1888.711 457.007h140.326v-500.622h-140.326v500.622zM2252.8 457.007h-151.704v-500.622h352.711v128.948h-201.007zM1065.719 51.2l87.23-91.022h204.8l-125.156 132.741c0 0 125.156 11.378 125.156 182.044s-151.704 185.837-151.704 185.837h-273.067v-500.622h136.533v91.022zM1065.719 324.267h109.985c0 0 30.341-11.378 30.341-60.681s-30.341-60.681-30.341-60.681h-109.985v121.363zM868.504 654.222c79.644 37.926 329.956 182.044 743.348-121.363 11.378 11.378 26.548 18.963 26.548 18.963s-379.259 375.467-800.237 333.748c-208.593-18.963-470.281-208.593-621.985-462.696s-174.459-466.489-174.459-466.489h572.681c0 0-109.985 496.83 254.104 697.837zM1247.763 900.741c-7.585 3.793-22.756 11.378-68.267 22.756l-3.793-45.511c22.756-7.585 45.511-15.17 68.267-26.548l3.793 49.304zM1243.97 601.126l3.793 60.681c-22.756 7.585-45.511 11.378-68.267 11.378l-3.793-60.681c22.756 0 45.511-3.793 68.267-11.378zM887.467 927.289h7.585l-11.378 34.133c-18.963 0-37.926 0-56.889-3.793l7.585-34.133c18.963 3.793 34.133 3.793 53.096 3.793zM944.356 601.126c18.963 11.378 37.926 18.963 56.889 26.548l-15.17 45.511c-22.756-7.585-41.719-15.17-56.889-22.756l15.17-49.304zM644.741 843.852l-37.926 45.511c-22.756-7.585-45.511-18.963-68.267-26.548l37.926-45.511c22.756 11.378 45.511 18.963 68.267 26.548zM750.933 513.896l30.341-56.889c11.378 18.963 22.756 37.926 37.926 53.096l-30.341 53.096c-11.378-15.17-26.548-30.341-37.926-49.304zM701.63 206.696c3.793 30.341 7.585 64.474 15.17 94.815l-49.304 45.511c-7.585-30.341-15.17-60.681-22.756-91.022l56.889-49.304zM360.296 627.674l-53.096 45.511c-18.963-18.963-37.926-37.926-53.096-56.889l56.889-49.304c15.17 18.963 34.133 41.719 49.304 60.681zM113.778 286.341l-75.852 26.548c-11.378-30.341-26.548-60.681-34.133-79.644l75.852-26.548c7.585 22.756 22.756 56.889 34.133 79.644zM644.741 100.504c0-34.133 3.793-60.681 11.378-79.644l98.607-26.548c-7.585 26.548-15.17 53.096-18.963 83.437l-91.022 22.756z" />
<glyph unicode="&#xe914;" glyph-name="reactjs" horiz-adv-x="1180" d="M578.599 550.008c-57.878 0-102.4-46.748-102.4-102.4s46.748-102.4 102.4-102.4c57.878 0 102.4 46.748 102.4 102.4s-44.522 102.4-102.4 102.4zM908.060 318.495c-13.357 46.748-33.391 93.496-55.652 144.696 22.261 48.974 42.296 97.948 55.652 144.696 129.113-35.617 207.026-91.27 207.026-144.696s-77.913-109.078-207.026-144.696zM850.181 9.069c-37.843-22.261-104.626 0-182.539 62.33-15.583 13.357-31.165 26.713-46.748 42.296 33.391 35.617 66.783 75.687 97.948 120.209 55.652 4.452 106.852 13.357 155.826 24.487 31.165-129.113 22.261-222.609-24.487-249.322zM500.686 71.4c-77.913-62.33-144.696-84.591-182.539-62.33-46.748 26.713-55.652 120.209-22.261 249.322 46.748-11.13 100.174-17.809 155.826-24.487 31.165-44.522 64.557-84.591 97.948-120.209-15.583-15.583-31.165-28.939-48.974-42.296zM53.242 463.191c0 51.2 77.913 106.852 207.026 144.696 13.357-46.748 33.391-93.496 55.652-144.696-22.261-48.974-42.296-97.948-55.652-144.696-129.113 35.617-207.026 91.27-207.026 144.696zM318.147 915.087c8.904 4.452 22.261 8.904 33.391 8.904 37.843 0 91.27-24.487 149.148-71.235 15.583-13.357 31.165-26.713 46.748-42.296-33.391-35.617-66.783-75.687-97.948-120.209-55.652-4.452-106.852-13.357-155.826-24.487-31.165 129.113-20.035 224.835 24.487 249.322zM790.077 578.947c-11.13 20.035-22.261 37.843-35.617 57.878 37.843-4.452 71.235-11.13 104.626-17.809-8.904-31.165-22.261-64.557-35.617-97.948-11.13 20.035-22.261 40.070-33.391 57.878zM585.277 774.843c22.261-24.487 46.748-51.2 66.783-80.139-22.261 0-44.522 2.226-66.783 2.226s-44.522 0-66.783-2.226c20.035 28.939 42.296 55.652 66.783 80.139zM344.86 521.069c-15.583 33.391-26.713 66.783-35.617 97.948 33.391 6.678 66.783 13.357 104.626 17.809-11.13-17.809-24.487-37.843-35.617-57.878-11.13-17.809-22.261-37.843-33.391-57.878zM413.868 287.33c-37.843 4.452-71.235 11.13-104.626 17.809 8.904 31.165 22.261 64.557 35.617 97.948 11.13-20.035 20.035-40.070 33.391-57.878 11.13-20.035 22.261-37.843 35.617-57.878zM585.277 149.313c-22.261 24.487-46.748 51.2-66.783 80.139 22.261 0 44.522-2.226 66.783-2.226s44.522 0 66.783 2.226c-22.261-28.939-44.522-55.652-66.783-80.139zM823.468 403.087c15.583-33.391 26.713-66.783 35.617-97.948-33.391-6.678-66.783-13.357-104.626-17.809 11.13 17.809 24.487 37.843 35.617 57.878s22.261 40.070 33.391 57.878zM747.781 369.695c-17.809-31.165-37.843-60.104-55.652-89.043-33.391-2.226-69.009-4.452-106.852-4.452-35.617 0-71.235 2.226-106.852 4.452-20.035 28.939-37.843 57.878-55.652 89.043s-35.617 62.33-48.974 91.27c15.583 31.165 31.165 60.104 48.974 91.27s37.843 60.104 55.652 89.043c33.391 2.226 69.009 4.452 106.852 4.452 35.617 0 71.235-2.226 106.852-4.452 20.035-28.939 37.843-57.878 55.652-89.043s35.617-62.33 48.974-91.27c-15.583-28.939-31.165-60.104-48.974-91.27zM667.642 852.756c57.878 46.748 111.304 71.235 149.148 71.235 13.357 0 24.487-2.226 33.391-8.904 46.748-26.713 55.652-120.209 22.261-249.322-46.748 11.13-100.174 17.809-155.826 24.487-31.165 44.522-64.557 84.591-97.948 120.209 17.809 15.583 33.391 28.939 48.974 42.296zM1166.286 463.191c0 80.139-95.722 149.148-244.87 191.443 37.843 146.922 24.487 264.904-46.748 304.974-57.878 33.391-144.696 8.904-240.417-66.783-17.809-13.357-33.391-28.939-51.2-44.522-17.809 15.583-33.391 31.165-51.2 44.522-95.722 77.913-182.539 100.174-240.417 66.783-71.235-40.070-84.591-155.826-46.748-304.974-149.148-42.296-244.87-111.304-244.87-191.443s95.722-149.148 244.87-191.443c-37.843-146.922-24.487-264.904 46.748-304.974 17.809-8.904 37.843-15.583 57.878-15.583 51.2 0 113.53 28.939 182.539 82.365 17.809 13.357 33.391 28.939 51.2 44.522 17.809-15.583 33.391-31.165 51.2-44.522 66.783-53.426 129.113-82.365 182.539-82.365 22.261 0 42.296 4.452 57.878 15.583 71.235 40.070 84.591 155.826 46.748 304.974 149.148 40.070 244.87 111.304 244.87 191.443z" />
<glyph unicode="&#xe915;" glyph-name="resume" horiz-adv-x="1144" d="M114.447 39.153v843.294h487.906v-379.482c0-24.094 18.071-48.188 48.188-48.188h379.482v-415.624h-915.576zM698.729 810.165l265.035-259.012h-265.035v259.012zM1120.376 508.988c0 0 0 0 0 0 0 6.024 0 6.024-6.024 12.047 0 0 0 0 0 0 0 6.024-6.024 6.024-6.024 6.024s0 0 0 0l-421.647 421.647c-12.047 18.071-30.118 24.094-42.165 24.094 0 0-6.024 0-6.024 0h-566.212c-30.118 0-48.188-18.071-48.188-48.188v-933.647c0-24.094 18.071-48.188 48.188-48.188h1005.929c24.094 0 48.188 18.071 48.188 48.188v512c-6.024 6.024-6.024 6.024-6.024 6.024z" />
<glyph unicode="&#xe916;" glyph-name="ruby" horiz-adv-x="1002" d="M1000.034 744.034c0 2.179 0 2.179 0 4.357 0 21.787-2.179 43.574-6.536 67.54 0 0 0 2.179 0 2.179-17.43 74.077-74.077 122.009-161.226 135.081 0 0 0 0-2.179 0 0 0 0 0-2.179 0h-265.804c-2.179 0-2.179 0-2.179 0-4.357 0-10.894 0-15.251-2.179l-189.549-69.719c-8.715-2.179-17.43-8.715-23.966-15.251l-183.013-169.94c-6.536-4.357-13.072-15.251-17.43-21.787l-113.294-204.8c0 0 0 0 0 0-4.357-8.715-4.357-19.609-4.357-28.323l-10.894-265.804c0 0 0 0 0 0s0 0 0 0v0c0 0 0 0 0 0 6.536-196.085 150.332-206.979 211.336-206.979 0 0 2.179 0 2.179 0s0 0 2.179 0l712.443 45.753c0 0 2.179 0 2.179 0v0c0 0 0 0 2.179 0 0 0 0 0 2.179 0 0 0 0 0 2.179 0 6.536 2.179 10.894 8.715 10.894 15.251 0 2.179 0 4.357-2.179 6.536l52.289 708.085zM962.996 798.502c10.894-50.111 0-106.757-10.894-143.796l-213.515 174.298 224.409-30.502zM359.489 356.221l235.302 217.872 43.574-167.762 39.217-150.332-318.094 100.221zM666.689 225.498c-54.468-47.932-113.294-98.043-183.013-137.26l-122.009 235.302 202.621-63.183 102.4-34.86zM671.047 412.868l-39.217 156.868c71.898-43.574 183.013-111.115 217.872-132.902-43.574-63.183-91.506-122.009-139.438-172.119l-39.217 148.153zM627.472 624.204l63.183 200.443 224.409-180.834-287.591-19.609zM657.974 591.523l278.877 19.609c-17.43-52.289-54.468-119.83-71.898-143.796-32.681 19.609-132.902 78.434-206.979 124.187zM832.272 918.332c52.289-10.894 89.328-32.681 111.115-69.719 2.179-4.357 6.536-10.894 8.715-15.251l-222.23 30.502 78.434 43.574 23.966 10.894zM764.732 920.511l-28.323-15.251-54.468-30.502-65.362 45.753h148.153zM50.111 90.417c-8.715 21.787-13.072 45.753-15.251 78.434l26.145 45.753-10.894-124.187zM37.038 245.106l6.536 113.294 21.787-58.826c-2.179-2.179 0-2.179 0-4.357l-28.323-50.111zM84.97 508.732c26.145 69.719 80.613 148.153 150.332 215.694s150.332 124.187 222.23 152.511c37.038 15.251 67.54 21.787 93.685 21.787s45.753-6.536 61.004-21.787c61.004-61.004-6.536-222.23-148.153-361.668-69.719-69.719-150.332-126.366-220.051-154.689-41.396-17.43-115.472-41.396-152.511-2.179-30.502 28.323-32.681 80.613-6.536 150.332zM78.434 49.021l15.251 180.834 78.434-180.834 13.072-30.502c2.179-4.357 4.357-8.715 4.357-13.072-45.753-2.179-82.791 8.715-111.115 43.574zM215.694 29.413c-63.183 154.689-91.506 222.23-106.757 252.732l196.085 43.574-89.328-296.306zM333.345 306.111l122.009-233.123c-63.183-32.681-135.081-58.826-215.694-69.719l93.685 302.843zM405.243 11.983c26.145 10.894 52.289 23.966 78.434 37.038 0 0 2.179 0 2.179 0l222.23-17.43-302.843-19.609zM533.787 77.345c52.289 32.681 102.4 71.898 154.689 122.009 4.357 4.357 8.715 6.536 10.894 10.894l180.834-161.226-346.417 28.323zM723.336 234.213c45.753 47.932 93.685 102.4 135.081 161.226l47.932-322.451-183.013 161.226zM923.779 184.102l-37.038 252.732c23.966 39.217 47.932 78.434 65.362 124.187l-28.323-376.919z" />
<glyph unicode="&#xe917;" glyph-name="twitter" horiz-adv-x="1205" d="M804.948 972.583v0.217h56.488l20.64-4.12c13.76-2.675 26.253-6.179 37.477-10.516 11.226-4.336 22.089-9.396 32.589-15.178s20.025-11.673 28.571-17.671c8.473-5.927 16.077-12.215 22.812-18.864 6.661-6.722 17.054-8.456 31.176-5.204s29.33 7.77 45.625 13.551c16.294 5.782 32.409 12.286 48.34 19.514 15.933 7.228 25.638 11.817 29.114 13.768 3.403 2.023 5.214 3.107 5.431 3.252l0.216 0.325 4.345 2.168 0.217 0.325 0.326 0.217 0.327 0.217 0.216 0.325 1.086 0.325 1.086 0.217-0.216-1.626-0.327-1.626-1.086-3.252-1.086-2.168-0.543-1.626c-0.362-1.084-0.723-2.529-1.086-4.336s-3.802-9.034-10.32-21.682-14.665-25.477-24.442-38.486c-9.777-13.009-18.539-22.838-26.287-29.488-7.821-6.722-13-11.419-15.535-14.094-2.534-2.746-5.612-5.275-9.234-7.589l-5.432-3.578-2.173-1.084-0.216-0.325-0.327-0.217-0.326-0.217-0.217-0.325-2.173-1.084-0.216-0.325-0.327-0.217-0.326-0.217-0.217-0.325-0.216-0.325-0.327-0.217-0.326-0.217-0.217-0.325h5.431l30.416 6.505c20.278 4.336 39.65 9.576 58.117 15.72l34.218 11.383 4.345 2.168 2.173 0.325 2.173 0.217v-2.168l-0.543-0.217-0.543-0.325-0.216-0.325-0.327-0.217-0.326-0.217-0.217-0.325-0.216-0.325-0.327-0.217-0.326-0.217-0.217-0.325-0.216-0.325-0.327-0.217-1.086-2.168-0.326-0.217c-0.145-0.217-4.743-6.359-13.796-18.43-9.052-12.142-13.94-18.285-14.665-18.43-0.723-0.217-1.738-1.301-3.042-3.252-1.231-2.023-8.908-10.082-23.030-24.176s-27.953-26.632-41.495-37.619c-13.615-11.058-20.495-24.645-20.64-40.763-0.217-16.045-1.050-34.187-2.5-54.423-1.448-20.237-4.164-42.099-8.147-65.589s-10.138-50.050-18.467-79.683c-8.328-29.632-18.467-58.542-30.416-86.729s-24.442-53.483-37.477-75.888c-13.036-22.405-24.985-41.377-35.848-56.916s-21.906-30.174-33.132-43.907c-11.225-13.732-25.418-29.2-42.582-46.4-17.236-17.129-26.65-26.525-28.244-28.187-1.665-1.59-8.762-7.517-21.293-17.78-12.456-10.335-25.854-20.67-40.193-31.006-14.266-10.263-27.375-18.828-39.324-25.694s-26.36-14.707-43.235-23.525c-16.801-8.89-34.979-17.129-54.532-24.718s-40.193-14.636-61.919-21.14c-21.726-6.505-42.727-11.564-63.005-15.178-20.277-3.613-43.271-6.686-68.98-9.215l-38.564-3.794v-0.542h-70.609v0.542l-9.234 0.542c-6.155 0.361-11.225 0.723-15.208 1.084s-19.010 2.349-45.081 5.963-46.529 7.228-61.376 10.841c-14.845 3.613-36.934 10.48-66.264 20.598s-54.424 20.346-75.281 30.68c-20.784 10.263-33.82 16.768-39.107 19.514-5.214 2.675-11.080 5.998-17.598 9.974l-9.777 5.963-0.216 0.325-0.327 0.217-0.326 0.217-0.217 0.325-2.173 1.084-0.216 0.325-0.327 0.217-0.326 0.217-0.217 0.325-0.216 0.325-0.327 0.217h-0.543v2.168l1.086-0.217 1.086-0.325 4.888-0.542c3.259-0.361 12.131-0.903 26.614-1.626 14.485-0.723 29.873-0.723 46.168 0s32.952 2.349 49.97 4.879c17.019 2.529 37.116 6.866 60.29 13.009 23.175 6.144 44.467 13.443 63.875 21.899 19.336 8.528 33.095 14.888 41.279 19.080 8.11 4.12 20.494 11.781 37.15 22.983l24.985 16.804 0.217 0.325 0.326 0.217 0.327 0.217 0.216 0.325 0.217 0.325 0.326 0.217 0.327 0.217 0.216 0.325 1.086 0.325 1.086 0.217 0.217 1.084 0.326 1.084 0.327 0.217 0.216 0.325-8.69 0.542c-5.793 0.361-11.406 0.723-16.838 1.084s-13.94 1.987-25.528 4.879c-11.586 2.891-24.079 7.228-37.477 13.009s-26.433 12.648-39.107 20.598c-12.673 7.95-21.835 14.564-27.483 19.839-5.576 5.205-12.818 12.576-21.726 22.116-8.835 9.612-16.512 19.478-23.030 29.596s-12.746 21.792-18.683 35.017l-9.017 19.731-1.086 3.252-0.326 1.084-0.217 1.084 1.629-0.217 1.629-0.325 11.949-1.626c7.967-1.084 20.459-1.445 37.477-1.084 17.019 0.361 28.787 1.084 35.305 2.168s10.501 1.807 11.949 2.168l2.173 0.542 5.431 1.084 0.217 0.325 0.326 0.217 0.327 0.217 0.216 0.325-10.863 2.71c-1.448 0.361-3.982 1.084-7.604 2.168-3.621 1.084-13.397 5.060-29.33 11.925-15.932 6.866-28.606 13.551-38.020 20.056-9.438 6.524-18.438 13.658-26.94 21.357-8.473 7.806-17.778 17.852-27.918 30.138-10.138 12.286-19.191 26.561-27.158 42.823-7.966 16.262-13.94 31.8-17.924 46.617-3.967 14.729-6.585 29.788-7.82 44.991l-1.956 22.766 1.086-0.217 1.086-0.325 4.345-2.168 16.838-7.589c11.226-5.060 25.166-9.396 41.823-13.009s26.614-5.602 29.873-5.963l4.888-0.542h9.777l-0.216 0.325-0.327 0.217-0.326 0.217-0.217 0.325-0.216 0.325-0.327 0.217-0.326 0.217-0.217 0.325-2.173 1.084-0.216 0.325-0.327 0.217-0.326 0.217-0.217 0.325-2.173 1.084-0.216 0.325c-0.217 0.145-3.332 2.458-9.343 6.938-5.939 4.553-12.167 10.443-18.684 17.671s-13.036 14.817-19.553 22.766c-6.53 7.968-12.346 16.493-17.381 25.477-5.069 9.034-10.428 20.527-16.077 34.475-5.576 13.877-9.813 27.862-12.71 41.955s-4.525 28.006-4.888 41.738c-0.362 13.732 0 25.477 1.086 35.234s3.259 20.779 6.518 33.066c3.259 12.286 7.967 25.296 14.122 39.028l9.234 20.598 1.086 3.252 0.327 0.217 0.216 0.325 0.217 0.325 0.326 0.217 0.327-0.217 0.216-0.325 0.217-0.325 0.326-0.217 0.327-0.217 0.216-0.325 0.217-0.325 0.326-0.217 1.086-2.168 0.327-0.217 0.216-0.325 14.665-16.262c9.777-10.841 21.364-22.947 34.762-36.318s20.821-20.309 22.269-20.815c1.449-0.578 3.259-2.24 5.431-4.987 2.173-2.675 9.415-9.071 21.726-19.189 12.312-10.118 28.425-21.863 48.34-35.234 19.916-13.37 42.004-26.561 66.264-39.57 24.261-13.009 50.333-24.754 78.214-35.234 27.882-10.48 47.435-17.346 58.66-20.598 11.226-3.252 30.416-7.408 57.574-12.467s47.617-8.312 61.376-9.757c13.76-1.445 23.175-2.277 28.244-2.493l7.604-0.217-0.216 1.626-0.327 1.626-2.173 13.551c-1.448 9.034-2.173 21.682-2.173 37.944s1.268 31.258 3.802 44.991c2.535 13.732 6.337 27.645 11.406 41.738 5.070 14.094 10.031 25.405 14.882 33.933 4.925 8.456 11.37 18.105 19.336 28.946s18.287 22.043 30.96 33.608c12.674 11.564 27.158 21.863 43.452 30.897s31.322 15.901 45.081 20.598c13.76 4.697 25.348 7.77 34.762 9.215s14.122 2.277 14.122 2.493z" />
<glyph unicode="&#xe918;" horiz-adv-x="1155" d="M708.19 951.611l-132.488-229.494-132.498 229.494h-436.349l567.787-983.426 567.766 983.426z" />
<glyph unicode="&#xe919;" horiz-adv-x="1155" d="M575.7 722.125l-132.498 229.483h-211.803l343.241-594.494 343.231 594.494h-209.682z" />
<glyph unicode="&#xe91d;" glyph-name="right" d="M678.4 460.8l-365.619 379.904c-13.722 13.824-13.722 36.198 0 50.125 13.722 13.824 35.891 13.824 49.613 0l400.896-404.89c13.722-13.875 13.722-36.301 0-50.125l-400.896-404.89c-13.722-13.875-35.891-13.824-49.613 0-13.722 13.773-13.722 36.198 0 50.125l365.619 379.75z" />
<glyph unicode="&#xe91e;" glyph-name="left" d="M711.219 80.998c13.722-13.926 13.722-36.301 0-50.125s-35.891-13.875-49.613 0l-400.896 404.89c-13.722 13.824-13.722 36.198 0 50.125l400.896 404.89c13.722 13.824 35.891 13.824 49.613 0 13.722-13.875 13.722-36.301 0-50.125l-365.619-379.853 365.619-379.802z" />
</font>
</defs>
</svg>
